/* XPM */
static char *_5ef896977de4822e51ed37b0ea44640F8oj6BmYGYvA5d2V[] = {
/* columns rows colors chars-per-pixel */
"32 32 144 2 ",
"   c #260B0C",
".  c #260C0D",
"X  c #270C0D",
"o  c #280C0D",
"O  c #2A0C0D",
"+  c #2B0C0D",
"@  c #280D0E",
"#  c #290D0E",
"$  c #2A0D0E",
"%  c #2B0D0E",
"&  c #2B0D0F",
"*  c #2B0E0F",
"=  c #2C0D0E",
"-  c #2D0D0E",
";  c #2C0D0F",
":  c #2D0D0F",
">  c #2E0D0E",
",  c #2F0D0E",
"<  c #2E0D0F",
"1  c #2C0E0F",
"2  c #2D0E0F",
"3  c #2E0E0F",
"4  c #2F0E0F",
"5  c #310D0E",
"6  c #300E0F",
"7  c #310E0F",
"8  c #310F0F",
"9  c #320E0F",
"0  c #330E0F",
"q  c #2F0E10",
"w  c #2F0F10",
"e  c #300E10",
"r  c #300F10",
"t  c #310F10",
"y  c #320F10",
"u  c #330F10",
"i  c #340F10",
"p  c #340F11",
"a  c #360F10",
"s  c #360F11",
"d  c #331011",
"f  c #341011",
"g  c #351011",
"h  c #361011",
"j  c #371011",
"k  c #371012",
"l  c #371112",
"z  c #381112",
"x  c #391112",
"c  c #3B1213",
"v  c #3C1113",
"b  c #3D1213",
"n  c #3B1214",
"m  c #3C1214",
"M  c #3D1214",
"N  c #3D1314",
"B  c #3D1315",
"V  c #3E1214",
"C  c #3F1214",
"Z  c #3E1314",
"A  c #3E1315",
"S  c #3F1315",
"D  c #341718",
"F  c #351718",
"G  c #351819",
"H  c #361819",
"J  c #3A1819",
"K  c #39191A",
"L  c #3A191A",
"P  c #3B191A",
"I  c #3C191A",
"U  c #3E1A1B",
"Y  c #3A2223",
"T  c #3B2223",
"R  c #3E2223",
"E  c #3E2324",
"W  c #3F2324",
"Q  c #401314",
"!  c #401315",
"~  c #411315",
"^  c #421315",
"/  c #401415",
"(  c #411415",
")  c #411416",
"_  c #421416",
"`  c #431416",
"'  c #431516",
"]  c #441516",
"[  c #441517",
"{  c #451517",
"}  c #451617",
"|  c #471618",
" . c #481718",
".. c #491718",
"X. c #4A1718",
"o. c #4A1719",
"O. c #461D1F",
"+. c #471D1F",
"@. c #4A1819",
"#. c #4B1819",
"$. c #4C1819",
"%. c #4D1819",
"&. c #4E1819",
"*. c #4D181A",
"=. c #4D191A",
"-. c #4E191A",
";. c #4F191A",
":. c #491E1F",
">. c #4B1E1F",
",. c #50191A",
"<. c #51191A",
"1. c #50191B",
"2. c #501A1B",
"3. c #511A1B",
"4. c #4A1E20",
"5. c #4C1F20",
"6. c #422425",
"7. c #432425",
"8. c #442425",
"9. c #452425",
"0. c #462525",
"q. c #462526",
"w. c #472526",
"e. c #482526",
"r. c #4A2627",
"t. c #4D2E2F",
"y. c #542223",
"u. c #552324",
"i. c #562324",
"p. c #572324",
"a. c #502829",
"s. c #50282A",
"d. c #51282A",
"f. c #52282A",
"g. c #52292A",
"h. c #53292B",
"j. c #54292B",
"k. c #5D2D2E",
"l. c #5E2D2E",
"z. c #5E2E2E",
"x. c #5A3234",
"c. c #602E2F",
"v. c #612E2F",
"b. c #612F2F",
/* pixels */
"b.k.j.a.q.q.8.8.0.0.7.0.R R R 7.a.j.a.j.h.d.q.8.8.8.6.R 6.9.9.t.",
"&.X.! b 9 9 9 9 0 0 9 ; + + + + N ( / / Z Z i y 9 9 + + 9 9 ; B ",
"z h y ; *     * + ; * * * + ; * i z / / h h 9 d ; ; ; ; 0 0 ; H ",
"i y ; * * * X * ; ; * * + ; + w y i Z Q d 9 d 9 ; ; * + w 0 * H ",
") Z Z Z { { S S S B 0 d 0 9 X X O * X q X X * * * * X X * * + H ",
"! ! ! | &.&./ / / N d 0 0 w X X     X q X q q q ; * * X w * + H ",
"q y h z | / h h i 0 ; * * * * + y i Z Z  .@.&.@.b S S S N b 0 K ",
"* q y i Z Z 0 d 0 0 + + * + * w y i ) | =.=.3.=.{ / { / / ( i K ",
"  X * q h h 0 0 * ; * + * + 0 d ! ! ) ) | X.3.&.{ / [ Z k p q D ",
"q X ; q d 0 d d * ; + ; * * 0 d ) ! [ ) Z / &.%.{ / Z Z i y q D ",
"@.@.&.{ h h S b d 0 0 9 X @ 0 i ) ) [ Z i z / { i h h d y i Z 4.",
"3.3.&.@.h h S N 0 0 0 ; X * 0 i ! ! ! Z i i ( b i y y y y y Z 4.",
"3.&.{ { Z b h h d 0 * X * + * w i h h y ; ; ; ; @ X   q q q y I ",
"&.&./ / Z Z 0 0 0 w X X w ; w 0 i k h y ; * ; + X X     O q y P ",
"} S h d q ; ; + * * + 9 c / $.#.) ! Z Z y y * X X X * O y y 9 P ",
"S B d w ; ; ; ; * * * ; N { 2.&.[ ) ) Z i q q q X X O O y y 9 I ",
"i 9 ; ; 9 ; O * * O * q h x =.&.[ Z i k S N i ; ; * + * + * 0 K ",
"0 9 ; O 9 9 * * + * * q y x =.&.) Z i p N N h 0 ; * * * * + 0 K ",
"; ; O * *     * 9 y y y y h / [ k i i y w ; 0 0 + * + X X X + H ",
"w ; * O * *   * y y i y y h S x y y y y * * 0 0 ; + X X * w ; K ",
"( z i h Z Z y q * ; d 0 i y q q q *     X X * + w 0 d h #.#.$.y.",
"/ ( h z / b y y ; 9 z z x i y q O * *     * + ; w d 0 z $.3.$.p.",
"{ / / N h i * w S / &.&.=.1.=.X.i y * ; y 9 ; * * ; 0 h &.3.{ 5.",
"! / / b 0 ; * d S { 1.1.=.1.=.X.z i ; ; y ; ; ; ; ; i i #.$.] 5.",
"{ Z h y ; ; * ; i b 3.&.{ { | ) / Z 9 9 ; + * O * + 0 i / { / 5.",
"Z Z 9 ; ; * * + ; h #...{ / ) ) ! b d 9 ; * O * + ; w 0 N S b O.",
"q q * * * +   X   * h z / ! / Z h y ; * O   * O X X X X ; ; ; H ",
"q y 9 q ; ; * * * * 9 0 Z Z Z Z y y i ; * * * q * X * * w w 0 K ",
"&.3.%.X.( Q ! b i 9 ; ; ; * X * * y %.X.! Z i y y i ! ! / / &.u.",
"1.1.1.,.] Q ! b i i ; ; * * X X * y &.&.| ! i h y h ! ! / { &.u.",
"3.3.3.%.! Z i i Q b 9 9 9 ; X X y h &.&.! ! ! b i 9 0 0 ! ` / >.",
"b.k.b.k.j.a.e.e.a.d.q.9.9.9.T T 7.r.k.c.j.j.j.d.q.q.8.e.d.j.a.x."
};
