/* XPM */
static char *_1eaf5247e2b4572f4b13455c103101demTGFvuUkxHzb1yi[] = {
/* columns rows colors chars-per-pixel */
"32 32 21 1 ",
"  c None",
". c #140700",
"X c #210F02",
"o c #261302",
"O c #291403",
"+ c #291604",
"@ c #392106",
"# c #3A2208",
"$ c #3B2208",
"% c #3A2309",
"& c #3B2309",
"* c #3C2409",
"= c #3D240A",
"- c #412609",
"; c #42270B",
": c #43280B",
"> c #45280C",
", c #45290D",
"< c #46290D",
"1 c #45290E",
"2 c #46290E",
/* pixels */
"                                ",
"                                ",
"                                ",
"                                ",
"                                ",
"                                ",
"                                ",
"        >%===>>:=>22222=        ",
"        >>-o--@@@@@-@:>$        ",
"        >>@@@@--O>>>:>>$        ",
"        XXXoooooooo.o.OO        ",
"        >@@@@>>@>@@O->->        ",
"        @@o--->@----$$@$        ",
"        >>>->>>@@@o>22><        ",
"        ooXXXXXooOo.o.o+        ",
"        >>>>>o@>>-->>>>%        ",
"        @@@@@>--@@@o>@@@        ",
"        >--->>@@@@-----@        ",
"        oXooXXXoooooXXo+        ",
"        >>>>>@>@@o@@->>>        ",
"        -@o>>>>@>--@@@$>        ",
"        >>@@@>>@>>@=>>22        ",
"        ooo+XXoooooo.o.+        ",
"                                ",
"                                ",
"                                ",
"                                ",
"                                ",
"                                ",
"                                ",
"                                ",
"                                "
};
