/* XPM */
static char *_5ebf7bfa6504f64fb7c7c26157446d5VEcPGjSPIPLcLrRj[] = {
/* columns rows colors chars-per-pixel */
"32 32 12 1 ",
"  c None",
". c black",
"X c #1A100B",
"o c gray17",
"O c #482D1E",
"+ c #633E29",
"@ c #222661",
"# c #494949",
"$ c #646464",
"% c #797979",
"& c #8B8B8B",
"* c gray60",
/* pixels */
"                                ",
"                                ",
"                                ",
"           $$$$$$$$$#####       ",
"           $%%%%%%%%$$%$#       ",
"           $%%%%&&%%$$$$#       ",
"           $%&&&&&&&%$$$o       ",
"           $&*&&**&&%%$%o       ",
"           $*##**##&$%$$#       ",
"       OO  $&&&$$&**%$$$o       ",
"      O+X# $%&####%%$$%$o       ",
"     O+X@& $%%%%%%%%$$$$o       ",
"     OOX@* ########o#oooo       ",
"    O+X$$*####$$##########      ",
"    O+X*&*$$$$%&$$%%$$$$$#      ",
"    OOX&%*%%$$&*$$$$$%$$$o      ",
"    XOX##&##oo#######ooooo      ",
"     XOX@&     ##$$$##          ",
"     XOX@&       o%$            ",
"      XO.#   #$$$$$$##oo        ",
"       ..    $$#####ooo#        ",
"              o%$o o%$o         ",
"              #&$# #&$#         ",
"              #*$# #%$#         ",
"              #&$# #&$#         ",
"              #&$# #*$#         ",
"              #%$# #&$#         ",
"              #&$o #%$o         ",
"              #%$o #%$o         ",
"              oooo oooo         ",
"                                ",
"                                "
};
