/* XPM */
static char *_eeccdc85bb048eef69391a4ebab1337h5syhDV30AXPJHZh[] = {
/* columns rows colors chars-per-pixel */
"32 32 229 2 ",
"   c None",
".  c #533888",
"X  c #523889",
"o  c #533889",
"O  c #533989",
"+  c #543989",
"@  c #54398A",
"#  c #563A8D",
"$  c #563B8D",
"%  c #573B8D",
"&  c #573B8E",
"*  c #583C8E",
"=  c #593D90",
"-  c #5A3E91",
";  c #5A3F91",
":  c #5A3E92",
">  c #5B3F92",
",  c #5C4092",
"<  c #5C4094",
"1  c #5D4094",
"2  c #5D4195",
"3  c #5E4195",
"4  c #5E4296",
"5  c #5F4396",
"6  c #624496",
"7  c #634696",
"8  c #674A95",
"9  c #694B97",
"0  c #604398",
"q  c #614499",
"w  c #62459A",
"e  c #65489D",
"r  c #694AA3",
"t  c #694AA4",
"y  c #6A4BA4",
"u  c #6A4BA5",
"i  c #6B4CA7",
"p  c #6C4CA7",
"a  c #6C4DA8",
"s  c #6D4DA8",
"d  c #6E4EA8",
"f  c #6D4DAA",
"g  c #6E4EAA",
"h  c #6E4FAA",
"j  c #6E4EAB",
"k  c #6F4FAB",
"l  c #6F50AB",
"z  c #7050AC",
"x  c #7151AD",
"c  c #7150AE",
"v  c #7251AE",
"b  c #7252AE",
"n  c #7252AF",
"m  c #7352AF",
"M  c #7353AF",
"N  c #7454B0",
"B  c #7554B1",
"V  c #7655B3",
"C  c #7656B3",
"Z  c #7756B3",
"A  c #7757B4",
"S  c #7856B2",
"D  c #7957B3",
"F  c #7858B3",
"G  c #7A58B3",
"H  c #7D5CB1",
"J  c #7F5DB1",
"K  c #7A59B6",
"L  c #7A59B7",
"P  c #7C59B6",
"I  c #7E5DBB",
"U  c #7E61B0",
"Y  c #805DB2",
"T  c #805EB2",
"R  c #815FBB",
"E  c #8265B3",
"W  c #8663BA",
"Q  c #8764BA",
"!  c #8160BE",
"~  c #8A66BA",
"^  c #896BB8",
"/  c #8A6BB8",
"(  c #8361C0",
")  c #8462C2",
"_  c #8463C2",
"`  c #8563C4",
"'  c #8664C4",
"]  c #8764C5",
"[  c #8765C5",
"{  c #8765C6",
"}  c #8865C6",
"|  c #8866C6",
" . c #8966C7",
".. c #8966C8",
"X. c #8967C8",
"o. c #8A67C8",
"O. c #8A67C9",
"+. c #8A68C9",
"@. c #8B68C9",
"#. c #8B68CA",
"$. c #8D69C8",
"%. c #8C69CB",
"&. c #8D6ACC",
"*. c #8F6BCE",
"=. c #906CCC",
"-. c #926FCD",
";. c #906CCF",
":. c #906DCF",
">. c #906DD0",
",. c #916DD0",
"<. c #936FD0",
"1. c #926ED1",
"2. c #926FD1",
"3. c #9470D0",
"4. c #9C76D5",
"5. c #9D78D3",
"6. c #9E79D3",
"7. c #9D78D5",
"8. c #9F7CDD",
"9. c #A480E4",
"0. c #A581E4",
"q. c #A783E6",
"w. c #A884E7",
"e. c #A985E8",
"r. c #AA85EB",
"t. c #AB86EA",
"y. c #AB87EB",
"u. c #AD88EB",
"i. c #AC88EC",
"p. c #AD88EC",
"a. c #AE8AEE",
"s. c #AF8AEF",
"d. c #AF8BEF",
"f. c #B98DE3",
"g. c #BA8EE4",
"h. c #B58FEA",
"j. c #B08AEC",
"k. c #B18CEF",
"l. c #B38DEF",
"z. c #B292E7",
"x. c #BD91E6",
"c. c #BD91E7",
"v. c #BC9AEF",
"b. c #B08BF0",
"n. c #B28DF2",
"m. c #B38EF3",
"M. c #B48EF3",
"N. c #B58FF3",
"B. c #B790F3",
"V. c #B791F4",
"C. c #BA93F1",
"Z. c #B891F3",
"A. c #BA93F2",
"S. c #BA94F2",
"D. c #BC95F1",
"F. c #BF97F1",
"G. c #BC95F2",
"H. c #BC95F3",
"J. c #DCADD5",
"K. c #E0B1D9",
"L. c #E6B6DD",
"P. c #EDBCDF",
"I. c #EEBDDF",
"U. c #C598E6",
"Y. c #C093EB",
"T. c #C397EB",
"R. c #C597EC",
"E. c #C699EF",
"W. c #CB9DEA",
"Q. c #CB9EEA",
"!. c #C599F0",
"~. c #CA9DF2",
"^. c #CB9DF3",
"/. c #CB9EF3",
"(. c #CA9DF4",
"). c #C4A1EE",
"_. c #C4A1EF",
"`. c #CCA3EB",
"'. c #CDA4EC",
"]. c #CEA5ED",
"[. c #D9AEEF",
"{. c #DBB0EF",
"}. c #DBB5ED",
"|. c #D0A1F1",
" X c #D3A4F2",
".X c #D5A6F1",
"XX c #D5A5F2",
"oX c #D6A6F2",
"OX c #D5AAF0",
"+X c #E6B6E0",
"@X c #E7B8E2",
"#X c #EEBEE0",
"$X c #EFBEE0",
"%X c #EABAE5",
"&X c #EDBCE5",
"*X c #EDBDE9",
"=X c #F0BFE0",
"-X c #E6DED3",
";X c #E8DFD4",
":X c #EAE0D3",
">X c #F0E6D2",
",X c #F3E8DB",
"<X c #F7EDDA",
"1X c #F3E9DC",
"2X c #FAEEDA",
"3X c #FAEFDA",
"4X c #FBF0DA",
"5X c #FFF3D8",
"6X c #F5C3E6",
"7X c #F6C4E7",
"8X c #F7C6E7",
"9X c #F8C5E6",
"0X c #F8CAE5",
"qX c #FECAE6",
"wX c #F9CCE6",
"eX c #FDCFE4",
"rX c #FFCCE6",
"tX c #FFCDE6",
"yX c #FFCDE7",
"uX c #F3C2E9",
"iX c #F6C4E8",
"pX c #F7C5E8",
"aX c #F8C6E8",
"sX c #F9C6E8",
"dX c #FBC9E8",
"fX c #FED5E3",
"gX c #FED0E4",
"hX c #FED1E5",
"jX c #FFD1E5",
/* pixels */
"                                                                ",
"                                                                ",
"                                                                ",
"                                                                ",
"                                    g g g g g g g g j j         ",
"                                    Y Y Y Y J J J J g a         ",
"                                g J K.I.I.I.P.I.$XJ.9 $         ",
"                                C W $XyXyXyXgXgXdXL.8 O         ",
"                            g C 9.h.6XyXqXgX5X2X{.U.6 +         ",
"                            J W u.S.*X8XyXfX2X,X].g.6 O         ",
"                        g H K.+XS.m.B.).<X4X}.].7.$., O         ",
"                        C ~ 6XaXS.m.B.v.:X:X`.Y.3.` : O         ",
"                    g G g.W.9XiXD.V.(.T./ E -.<.*.[ , O         ",
"                    C R R.oXaX7XT.V.E.c.Z j O.%.[ ! : O         ",
"                g C 9.j.~.oXaXaX X!.4.&.v N O.} q :             ",
"                C I i.V.~.oXwX0XW.x.<.+.N v ) R : O             ",
"            g V 9.i.m.B.(.OX2X>X^ K +.+.m p 4 :                 ",
"            v L w.k.i.k.|.[.1X-XU v +.} z r % +                 ",
"        j B ` $.<.<.;.7.&XuX_.z.G v +.} 4 $                     ",
"        p l [ +.+.*.<.5.+X%XA.y.C v ) ! : O                     ",
"        & > j V O.<.r.u.4.5.k.y.A i 4 :                         ",
"        + $ u j ) O.9.w.*.<.i.i.M r $ O                         ",
"        + + $ * : 4 C K O.<.b.w.q $                             ",
"        + $ + + + : r l O.-.9.8.6 O                             ",
"        + $ O $ r u * 4 [ [ e 4                                 ",
"        + + + $ r u > q ) ) : O                                 ",
"            + $ $ 4 ! _ B v                                     ",
"            @ o $ 4 ) [ N g                                     ",
"                u g v v                                         ",
"                v g g l                                         ",
"                                                                ",
"                                                                "
};
