/* XPM */
static char *_82e71ff3cc14107d0890401b83ce1f29tvy6zaGxbJTwk7X[] = {
/* columns rows colors chars-per-pixel */
"32 32 12 1 ",
"  c None",
". c black",
"X c #170404",
"o c #2E0A0A",
"O c #350B0B",
"+ c #480F0F",
"@ c #551111",
"# c #681515",
"$ c #751717",
"% c #D71515",
"& c #DB5811",
"* c #F0B10B",
/* pixels */
"                                ",
"                                ",
"                                ",
"                                ",
"                                ",
"                                ",
"                                ",
"                                ",
"                                ",
"                                ",
"       OOOOOOOOOOXXXXXXX        ",
"       O##@@##@@#++OOO+X        ",
"       O##@@#@@@#OooO++X        ",
"       O@@#$@@$$#O++OooX        ",
"       O#%%##%%##OOOoooX        ",
"       O#&*##*&@@OOO++OX        ",
"       O@@$$#####++ooOOX        ",
"       O#@@@@@@@@OoOOOOX        ",
"       O####@$$##O+++ooX        ",
"       O@@@@@#@@#Oo+ooo.        ",
"       O#$$#@@@@@Oooooo.        ",
"       OXXXXXXXXXX......        ",
"                                ",
"                                ",
"                                ",
"                                ",
"                                ",
"                                ",
"                                ",
"                                ",
"                                ",
"                                "
};
