/* XPM */
static char *_23127db54604b46b45d704ec08e8204KEizJ7ChUs8owMNA[] = {
/* columns rows colors chars-per-pixel */
"32 32 56 1 ",
"  c None",
". c #000001",
"X c #2C1E83",
"o c #2A1B84",
"O c #20178A",
"+ c #2A1288",
"@ c #29178A",
"# c #2B118E",
"$ c #2A138E",
"% c #2A158F",
"& c #2A178F",
"* c #251E8A",
"= c #2A198B",
"- c #2A1B8C",
"; c #2B1D8D",
": c #37118E",
"> c #331E8A",
", c #330E9B",
"< c #390F9C",
"1 c #2B1094",
"2 c #2A1294",
"3 c #2A1694",
"4 c #2A1993",
"5 c #2A1798",
"6 c #391095",
"7 c #2D2082",
"8 c #2E2284",
"9 c #2D2088",
"0 c #2D208B",
"q c #330EA4",
"w c #390FA1",
"e c #3E0EA0",
"r c #380BAD",
"t c #3E0EAE",
"y c #410D9F",
"u c #4D07A2",
"i c #440CA3",
"p c #410AA6",
"a c #4D0AA6",
"s c #4D07AB",
"d c #410DA8",
"f c #480BAD",
"g c #5407A2",
"h c #5309A1",
"j c #5805AB",
"k c #5A08AC",
"l c #4D06B8",
"z c #5309B5",
"x c #5906B8",
"c c #6207AB",
"v c #6705AB",
"b c #7B0CAB",
"n c #6905C5",
"m c #8204C1",
"M c #821CC1",
"N c #821EC1",
/* pixels */
"                                ",
"                                ",
"                                ",
"                                ",
"                                ",
"                                ",
"                                ",
"                                ",
"          ............          ",
"          ............          ",
"        ..bz3;ecliak&;..        ",
"        ..h@;dnzs#dba-..        ",
"        ..*Xajao&3odxa..        ",
"        ..Oamao>o:oX,v..        ",
"        ..qns--::tf3oe..        ",
"        ..3f<52&kpkh4-..        ",
"        ..#rw:#*snNe&-..        ",
"        ..qjx3=6tgkuf2..        ",
"        ..Xwjvw6kaNv&o..        ",
"        ..&Oimmeamk+>w..        ",
"        ..j&O:nsuj2Xqj..        ",
"        ..nj&8<qd2>wxn..        ",
"          ............          ",
"          ............          ",
"                                ",
"                                ",
"                                ",
"                                ",
"                                ",
"                                ",
"                                ",
"                                "
};
