/* XPM */
static char *_9bcfb2ba2fb4f89daf832d2014e0238BQ41pOpLKugjARfi[] = {
/* columns rows colors chars-per-pixel */
"32 32 9 1 ",
"  c None",
". c #553A1F",
"X c #443321",
"o c #5A4424",
"O c #614B2E",
"+ c #70522E",
"@ c #7A5A34",
"# c #82613A",
"$ c #886539",
/* pixels */
"                                ",
"                                ",
"                                ",
"                                ",
"                                ",
"                                ",
"                                ",
"        .X.o.X..oX..X...        ",
"        X####@#@$@@####X        ",
"        .#ooOO+O++++OO$.        ",
"        .#o$$####@###O#.        ",
"        .@O#@@@@@@@@#+@.        ",
"        X#+#@OO++OO@#O@X        ",
"        .@O@@o@@@@O@@O#.        ",
"        .@+#@O@OO@+@#+@.        ",
"        .@+#@O@OO@O@#O@.        ",
"        X@+#@O@@@@+@@O@X        ",
"        .@O#@OOoO++@#+@.        ",
"        .@+#@@@@@@@@#O@.        ",
"        X#+##@#####$#O@X        ",
"        .#+O+OOOOOOOOO#.        ",
"        .###@@#@@$@@###.        ",
"        .X...X..oX..Xo..        ",
"                                ",
"                                ",
"                                ",
"                                ",
"                                ",
"                                ",
"                                ",
"                                ",
"                                "
};
